<svg width="20" height="18" viewBox="0 0 20 18" fill="none" xmlns="http://www.w3.org/2000/svg">
<path d="M8.78813 14.7598V15.8188C8.78813 17.0235 9.79208 18 11.0305 18H17.7576C18.9961 18 20 17.0235 20 15.8188V9.27538C20 8.07076 18.9961 7.09422 17.7576 7.09422H16.393C16.3385 7.35971 16.2073 7.61325 15.9994 7.82127H17.7576C18.5832 7.82127 19.2525 8.4723 19.2525 9.27538V15.8188C19.2525 16.6219 18.5832 17.2729 17.7576 17.2729H11.0305C10.2049 17.2729 9.53559 16.6219 9.53559 15.8188V14.1089L9.1133 14.5196C9.01418 14.616 8.90461 14.6961 8.78813 14.7598Z" fill="white"/>
<path fill-rule="evenodd" clip-rule="evenodd" d="M5.9421 1.15295L1.18531 5.77988C0.601508 6.34774 0.601508 7.26843 1.18531 7.83629L5.9421 12.4632C6.5259 13.0311 7.47243 13.0311 8.05623 12.4632L12.813 7.83629C13.3968 7.26843 13.3968 6.34774 12.813 5.77988L8.05623 1.15295C7.47243 0.585086 6.5259 0.585086 5.9421 1.15295ZM0.656776 5.26578C-0.218925 6.11757 -0.218925 7.4986 0.656776 8.3504L5.41357 12.9773C6.28927 13.8291 7.70906 13.8291 8.58476 12.9773L13.3416 8.3504C14.2173 7.4986 14.2173 6.11757 13.3416 5.26578L8.58476 0.638846C7.70906 -0.212949 6.28927 -0.212949 5.41357 0.638846L0.656776 5.26578Z" fill="white"/>
<path fill-rule="evenodd" clip-rule="evenodd" d="M6.91949 4.91306C7.3323 4.91306 7.66694 4.58755 7.66694 4.18601C7.66694 3.78447 7.3323 3.45896 6.91949 3.45896C6.50668 3.45896 6.17203 3.78447 6.17203 4.18601C6.17203 4.58755 6.50668 4.91306 6.91949 4.91306Z" fill="white"/>
<path fill-rule="evenodd" clip-rule="evenodd" d="M6.91949 10.0024C7.3323 10.0024 7.66694 9.67692 7.66694 9.27538C7.66694 8.87384 7.3323 8.54833 6.91949 8.54833C6.50668 8.54833 6.17203 8.87384 6.17203 9.27538C6.17203 9.67692 6.50668 10.0024 6.91949 10.0024Z" fill="white"/>
<path fill-rule="evenodd" clip-rule="evenodd" d="M14.7678 13.6377C15.1806 13.6377 15.5153 13.3122 15.5153 12.9106C15.5153 12.5091 15.1806 12.1836 14.7678 12.1836C14.355 12.1836 14.0203 12.5091 14.0203 12.9106C14.0203 13.3122 14.355 13.6377 14.7678 13.6377Z" fill="white"/>
<path fill-rule="evenodd" clip-rule="evenodd" d="M4.30338 7.45775C4.71619 7.45775 5.05084 7.13223 5.05084 6.7307C5.05084 6.32916 4.71619 6.00364 4.30338 6.00364C3.89057 6.00364 3.55593 6.32916 3.55593 6.7307C3.55593 7.13223 3.89057 7.45775 4.30338 7.45775Z" fill="white"/>
<path fill-rule="evenodd" clip-rule="evenodd" d="M9.53559 7.45775C9.9484 7.45775 10.283 7.13223 10.283 6.7307C10.283 6.32916 9.9484 6.00364 9.53559 6.00364C9.12278 6.00364 8.78813 6.32916 8.78813 6.7307C8.78813 7.13223 9.12278 7.45775 9.53559 7.45775Z" fill="white"/>
</svg>
