<svg width="18" height="18" viewBox="0 0 18 18" fill="none" xmlns="http://www.w3.org/2000/svg">
<path d="M1 1.0022L17 17M11.1818 7.06682V3.18372C11.1824 2.64272 10.9818 2.12082 10.6192 1.71934C10.2565 1.31785 9.7576 1.06542 9.21927 1.01105C8.68094 0.95668 8.14161 1.10425 7.70598 1.42511C7.27034 1.74597 6.96949 2.21724 6.86182 2.74741M12.6364 12.6006C11.9264 13.3252 11.0161 13.8211 10.0223 14.0248C9.02843 14.2286 7.99639 14.1307 7.05854 13.7439C6.1207 13.3571 5.31983 12.699 4.75867 11.8539C4.19751 11.0089 3.90167 10.0154 3.90909 9.0011V7.54675M14.0909 7.54675V9.0011C14.0906 9.30101 14.0639 9.60032 14.0109 9.89552M9 14.0913V17M6.09091 17H11.9091M6.81818 6.81958V9.0011C6.81856 9.43228 6.94673 9.85369 7.1865 10.2121C7.42626 10.5705 7.76688 10.8498 8.16531 11.0147C8.56375 11.1797 9.00215 11.2229 9.42512 11.1389C9.8481 11.0549 10.2367 10.8474 10.5418 10.5427L6.81818 6.81958Z" stroke="#EF4444" stroke-linecap="round" stroke-linejoin="round"/>
</svg>
