<svg width="12" height="18" viewBox="0 0 12 18" fill="none" xmlns="http://www.w3.org/2000/svg">
<path d="M11 7.54545V9C11 10.3502 10.4732 11.6451 9.53553 12.5998C8.59785 13.5545 7.32608 14.0909 6 14.0909M6 14.0909C4.67392 14.0909 3.40215 13.5545 2.46447 12.5998C1.52678 11.6451 1 10.3502 1 9V7.54545M6 14.0909V17M3.14286 17H8.85714M6 1C5.43168 1 4.88663 1.22987 4.48477 1.63904C4.08291 2.04821 3.85714 2.60316 3.85714 3.18182V9C3.85714 9.57865 4.08291 10.1336 4.48477 10.5428C4.88663 10.9519 5.43168 11.1818 6 11.1818C6.56832 11.1818 7.11337 10.9519 7.51523 10.5428C7.91709 10.1336 8.14286 9.57865 8.14286 9V3.18182C8.14286 2.60316 7.91709 2.04821 7.51523 1.63904C7.11337 1.22987 6.56832 1 6 1Z" stroke="white" stroke-linecap="round" stroke-linejoin="round"/>
</svg>
